<?xml version="1.0" encoding="UTF-8" standalone="no"?>
<!-- Created with Inkscape (http://www.inkscape.org/) -->

<svg
   width="5.8208332mm"
   height="5.8208337mm"
   viewBox="0 0 5.8208332 5.8208337"
   version="1.1"
   id="svg1"
   xml:space="preserve"
   sodipodi:docname="g1_22.svg"
   inkscape:version="1.4.2 (ebf0e940d0, 2025-05-08)"
   xmlns:inkscape="http://www.inkscape.org/namespaces/inkscape"
   xmlns:sodipodi="http://sodipodi.sourceforge.net/DTD/sodipodi-0.dtd"
   xmlns="http://www.w3.org/2000/svg"
   xmlns:svg="http://www.w3.org/2000/svg"><sodipodi:namedview
     id="namedview1"
     pagecolor="#505050"
     bordercolor="#ffffff"
     borderopacity="1"
     inkscape:showpageshadow="0"
     inkscape:pageopacity="0"
     inkscape:pagecheckerboard="1"
     inkscape:deskcolor="#505050"
     inkscape:document-units="mm"
     inkscape:zoom="55.409086"
     inkscape:cx="11.009025"
     inkscape:cy="13.174734"
     inkscape:window-width="1380"
     inkscape:window-height="1217"
     inkscape:window-x="0"
     inkscape:window-y="0"
     inkscape:window-maximized="0"
     inkscape:current-layer="svg1"><inkscape:page
       x="0"
       y="0"
       width="5.8208332"
       height="5.8208337"
       id="page2"
       margin="0"
       bleed="0" /></sodipodi:namedview><defs
     id="defs1"><pattern
       id="a"
       x="8"
       y="8"
       width="4"
       height="4"
       patternUnits="userSpaceOnUse"><path
         fill="#5a5"
         d="M0 0h4v4H0z"
         id="path1" /><path
         fill="#3c7f3c"
         d="M0 0h2v2H0z"
         id="path2" /><path
         fill="#8b5e3c"
         d="M2 2h2v2H2z"
         id="path3" /></pattern></defs><g
     style="fill:none;stroke:currentColor;stroke-width:2;stroke-linecap:round;stroke-linejoin:round"
     id="g1"
     transform="matrix(0.26458333,0,0,0.26458333,-0.26458325,-0.26459183)"
     inkscape:label="g1"
     inkscape:export-filename="g1_512x512.png"
     inkscape:export-xdpi="2234.1819"
     inkscape:export-ydpi="2234.1819"><path
       d="m 12,20 v 2 M 12,2 v 2 m 5,16 v 2 M 17,2 V 4 M 2,12 H 4 M 2,17 H 4 M 2,7 h 2 m 16,5 h 2 m -2,5 h 2 M 20,7 h 2 M 7,20 v 2 M 7,2 v 2"
       id="path4" /><rect
       x="4"
       y="4"
       width="16"
       height="16"
       rx="2"
       id="rect4" /><rect
       x="8"
       y="8"
       width="8"
       height="8"
       rx="1"
       fill="url(#a)"
       id="rect5" /></g></svg>
